{
  "accessors": [
    {
      "bufferView": 2,
      "componentType": 5126,
      "count": 503,
      "max": [
        0.07117462158203125,
        0.721682071685791,
        8.868680953979492
      ],
      "min": [
        -0.5050795078277588,
        -0.07797789573669434,
        0.7288468480110168
      ],
      "type": "VEC3"
    },
    {
      "bufferView": 2,
      "byteOffset": 6036,
      "componentType": 5126,
      "count": 503,
      "type": "VEC3"
    },
    {
      "bufferView": 1,
      "componentType": 5126,
      "count": 503,
      "type": "VEC2"
    },
    {
      "bufferView": 0,
      "componentType": 5125,
      "count": 1584,
      "type": "SCALAR"
    },
    {
      "bufferView": 2,
      "byteOffset": 12072,
      "componentType": 5126,
      "count": 840,
      "max": [
        1.7730965614318848,
        2.5254759788513184,
        9.65997314453125
      ],
      "min": [
        -2.185100793838501,
        -1.443748950958252,
        6.862519264221191
      ],
      "type": "VEC3"
    },
    {
      "bufferView": 2,
      "byteOffset": 22152,
      "componentType": 5126,
      "count": 840,
      "type": "VEC3"
    },
    {
      "bufferView": 1,
      "byteOffset": 4024,
      "componentType": 5126,
      "count": 840,
      "type": "VEC2"
    },
    {
      "bufferView": 0,
      "byteOffset": 6336,
      "componentType": 5125,
      "count": 1260,
      "type": "SCALAR"
    },
    {
      "bufferView": 2,
      "byteOffset": 32232,
      "componentType": 5126,
      "count": 1589,
      "max": [
        0.25832200050354004,
        0.29690122604370117,
        0.7972360253334045
      ],
      "min": [
        -0.386319637298584,
        -0.32466840744018555,
        -0.013032523915171623
      ],
      "type": "VEC3"
    },
    {
      "bufferView": 2,
      "byteOffset": 51300,
      "componentType": 5126,
      "count": 1589,
      "type": "VEC3"
    },
    {
      "bufferView": 3,
      "componentType": 5126,
      "count": 1589,
      "type": "VEC4"
    },
    {
      "bufferView": 1,
      "byteOffset": 10744,
      "componentType": 5126,
      "count": 1589,
      "type": "VEC2"
    },
    {
      "bufferView": 1,
      "byteOffset": 23456,
      "componentType": 5126,
      "count": 1589,
      "type": "VEC2"
    },
    {
      "bufferView": 0,
      "byteOffset": 11376,
      "componentType": 5125,
      "count": 6141,
      "type": "SCALAR"
    },
    {
      "bufferView": 2,
      "byteOffset": 70368,
      "componentType": 5126,
      "count": 471,
      "max": [
        0.3078038692474365,
        0.3209095001220703,
        8.000725746154785
      ],
      "min": [
        -0.36292004585266113,
        -0.1408519744873047,
        0.7434577345848083
      ],
      "type": "VEC3"
    },
    {
      "bufferView": 2,
      "byteOffset": 76020,
      "componentType": 5126,
      "count": 471,
      "type": "VEC3"
    },
    {
      "bufferView": 1,
      "byteOffset": 36168,
      "componentType": 5126,
      "count": 471,
      "type": "VEC2"
    },
    {
      "bufferView": 0,
      "byteOffset": 35940,
      "componentType": 5125,
      "count": 1392,
      "type": "SCALAR"
    },
    {
      "bufferView": 2,
      "byteOffset": 81672,
      "componentType": 5126,
      "count": 840,
      "max": [
        2.1696975231170654,
        2.039626121520996,
        9.1000337600708
      ],
      "min": [
        -1.7879809141159058,
        -1.8922109603881836,
        5.73316764831543
      ],
      "type": "VEC3"
    },
    {
      "bufferView": 2,
      "byteOffset": 91752,
      "componentType": 5126,
      "count": 840,
      "type": "VEC3"
    },
    {
      "bufferView": 1,
      "byteOffset": 39936,
      "componentType": 5126,
      "count": 840,
      "type": "VEC2"
    },
    {
      "bufferView": 0,
      "byteOffset": 41508,
      "componentType": 5125,
      "count": 1260,
      "type": "SCALAR"
    },
    {
      "bufferView": 2,
      "byteOffset": 101832,
      "componentType": 5126,
      "count": 1589,
      "max": [
        0.10534214973449707,
        0.3577308654785156,
        0.8017792105674744
      ],
      "min": [
        -0.539778470993042,
        -0.26364612579345703,
        -0.019200846552848816
      ],
      "type": "VEC3"
    },
    {
      "bufferView": 2,
      "byteOffset": 120900,
      "componentType": 5126,
      "count": 1589,
      "type": "VEC3"
    },
    {
      "bufferView": 3,
      "byteOffset": 25424,
      "componentType": 5126,
      "count": 1589,
      "type": "VEC4"
    },
    {
      "bufferView": 1,
      "byteOffset": 46656,
      "componentType": 5126,
      "count": 1589,
      "type": "VEC2"
    },
    {
      "bufferView": 1,
      "byteOffset": 59368,
      "componentType": 5126,
      "count": 1589,
      "type": "VEC2"
    },
    {
      "bufferView": 0,
      "byteOffset": 46548,
      "componentType": 5125,
      "count": 6141,
      "type": "SCALAR"
    },
    {
      "bufferView": 2,
      "byteOffset": 139968,
      "componentType": 5126,
      "count": 503,
      "max": [
        0.537084698677063,
        0.6304416656494141,
        10.108505249023438
      ],
      "min": [
        -0.10297268629074097,
        -0.09087847173213959,
        0.7329033613204956
      ],
      "type": "VEC3"
    },
    {
      "bufferView": 2,
      "byteOffset": 146004,
      "componentType": 5126,
      "count": 503,
      "type": "VEC3"
    },
    {
      "bufferView": 1,
      "byteOffset": 72080,
      "componentType": 5126,
      "count": 503,
      "type": "VEC2"
    },
    {
      "bufferView": 0,
      "byteOffset": 71112,
      "componentType": 5125,
      "count": 1584,
      "type": "SCALAR"
    },
    {
      "bufferView": 2,
      "byteOffset": 152040,
      "componentType": 5126,
      "count": 840,
      "max": [
        2.3556737899780273,
        2.418297052383423,
        11.058369636535645
      ],
      "min": [
        -1.6206305027008057,
        -1.6241942644119263,
        8.060911178588867
      ],
      "type": "VEC3"
    },
    {
      "bufferView": 2,
      "byteOffset": 162120,
      "componentType": 5126,
      "count": 840,
      "type": "VEC3"
    },
    {
      "bufferView": 1,
      "byteOffset": 76104,
      "componentType": 5126,
      "count": 840,
      "type": "VEC2"
    },
    {
      "bufferView": 0,
      "byteOffset": 77448,
      "componentType": 5125,
      "count": 1260,
      "type": "SCALAR"
    },
    {
      "bufferView": 2,
      "byteOffset": 172200,
      "componentType": 5126,
      "count": 1589,
      "max": [
        0.3671896755695343,
        0.28400111198425293,
        0.801291823387146
      ],
      "min": [
        -0.2774519920349121,
        -0.33756864070892334,
        -0.008976727724075317
      ],
      "type": "VEC3"
    },
    {
      "bufferView": 2,
      "byteOffset": 191268,
      "componentType": 5126,
      "count": 1589,
      "type": "VEC3"
    },
    {
      "bufferView": 3,
      "byteOffset": 50848,
      "componentType": 5126,
      "count": 1589,
      "type": "VEC4"
    },
    {
      "bufferView": 1,
      "byteOffset": 82824,
      "componentType": 5126,
      "count": 1589,
      "type": "VEC2"
    },
    {
      "bufferView": 1,
      "byteOffset": 95536,
      "componentType": 5126,
      "count": 1589,
      "type": "VEC2"
    },
    {
      "bufferView": 0,
      "byteOffset": 82488,
      "componentType": 5125,
      "count": 6141,
      "type": "SCALAR"
    }
  ],
  "asset": {
    "generator": "fab-model-conversion",
    "version": "2.0"
  },
  "bufferViews": [
    {
      "buffer": 0,
      "byteLength": 107052,
      "target": 34963
    },
    {
      "buffer": 0,
      "byteLength": 108248,
      "byteOffset": 107052,
      "byteStride": 8,
      "target": 34962
    },
    {
      "buffer": 0,
      "byteLength": 210336,
      "byteOffset": 215300,
      "byteStride": 12,
      "target": 34962
    },
    {
      "buffer": 0,
      "byteLength": 76272,
      "byteOffset": 425636,
      "byteStride": 16,
      "target": 34962
    }
  ],
  "buffers": [
    {
      "byteLength": 501908,
      "uri": "scene.bin"
    }
  ],
  "extensionsUsed": [
    "KHR_texture_transform",
    "KHR_materials_specular"
  ],
  "images": [
    {
      "uri": "textures/palmtrunkLOW_baseColor.png"
    },
    {
      "uri": "textures/PalmFrondLOW_baseColor.png"
    },
    {
      "uri": "textures/PalmBaseLOW_baseColor.png"
    },
    {
      "uri": "textures/PalmBaseLOW_normal.png"
    }
  ],
  "materials": [
    {
      "doubleSided": true,
      "extensions": {
        "KHR_materials_specular": {
          "specularColorFactor": [
            1.0,
            1.0,
            1.0
          ],
          "specularFactor": 0.0
        }
      },
      "name": "palmtrunkLOW",
      "pbrMetallicRoughness": {
        "baseColorTexture": {
          "extensions": {
            "KHR_texture_transform": {
              "offset": [
                0.3234020120075751,
                0
              ],
              "rotation": -6.283185307179586,
              "scale": [
                2.0000000000000027,
                6.0000000000000036
              ]
            }
          },
          "index": 0
        },
        "metallicFactor": 0.0
      }
    },
    {
      "alphaMode": "BLEND",
      "doubleSided": true,
      "extensions": {
        "KHR_materials_specular": {
          "specularColorFactor": [
            1.0,
            1.0,
            1.0
          ],
          "specularFactor": 0.0
        }
      },
      "name": "PalmFrondLOW",
      "pbrMetallicRoughness": {
        "baseColorTexture": {
          "index": 1
        },
        "metallicFactor": 0.0,
        "roughnessFactor": 0.7820945740025113
      }
    },
    {
      "doubleSided": true,
      "extensions": {
        "KHR_materials_specular": {
          "specularColorFactor": [
            1.0,
            1.0,
            1.0
          ],
          "specularFactor": 0.0
        }
      },
      "name": "PalmBaseLOW",
      "normalTexture": {
        "index": 3,
        "scale": 0.4921919762041179
      },
      "pbrMetallicRoughness": {
        "baseColorTexture": {
          "index": 2
        },
        "metallicFactor": 0.0
      }
    }
  ],
  "meshes": [
    {
      "name": "PALMLOW_palmtrunkLOW_0",
      "primitives": [
        {
          "attributes": {
            "NORMAL": 1,
            "POSITION": 0,
            "TEXCOORD_0": 2
          },
          "indices": 3,
          "material": 0,
          "mode": 4
        }
      ]
    },
    {
      "name": "PALMLOW_PalmFrondLOW_0",
      "primitives": [
        {
          "attributes": {
            "NORMAL": 5,
            "POSITION": 4,
            "TEXCOORD_0": 6
          },
          "indices": 7,
          "material": 1,
          "mode": 4
        }
      ]
    },
    {
      "name": "PALMLOW_PalmBaseLOW_0",
      "primitives": [
        {
          "attributes": {
            "NORMAL": 9,
            "POSITION": 8,
            "TANGENT": 10,
            "TEXCOORD_0": 11,
            "TEXCOORD_1": 12
          },
          "indices": 13,
          "material": 2,
          "mode": 4
        }
      ]
    },
    {
      "name": "PALMLOW2_palmtrunkLOW_0",
      "primitives": [
        {
          "attributes": {
            "NORMAL": 15,
            "POSITION": 14,
            "TEXCOORD_0": 16
          },
          "indices": 17,
          "material": 0,
          "mode": 4
        }
      ]
    },
    {
      "name": "PALMLOW2_PalmFrondLOW_0",
      "primitives": [
        {
          "attributes": {
            "NORMAL": 19,
            "POSITION": 18,
            "TEXCOORD_0": 20
          },
          "indices": 21,
          "material": 1,
          "mode": 4
        }
      ]
    },
    {
      "name": "PALMLOW2_PalmBaseLOW_0",
      "primitives": [
        {
          "attributes": {
            "NORMAL": 23,
            "POSITION": 22,
            "TANGENT": 24,
            "TEXCOORD_0": 25,
            "TEXCOORD_1": 26
          },
          "indices": 27,
          "material": 2,
          "mode": 4
        }
      ]
    },
    {
      "name": "PALMLOW3_palmtrunkLOW_0",
      "primitives": [
        {
          "attributes": {
            "NORMAL": 29,
            "POSITION": 28,
            "TEXCOORD_0": 30
          },
          "indices": 31,
          "material": 0,
          "mode": 4
        }
      ]
    },
    {
      "name": "PALMLOW3_PalmFrondLOW_0",
      "primitives": [
        {
          "attributes": {
            "NORMAL": 33,
            "POSITION": 32,
            "TEXCOORD_0": 34
          },
          "indices": 35,
          "material": 1,
          "mode": 4
        }
      ]
    },
    {
      "name": "PALMLOW3_PalmBaseLOW_0",
      "primitives": [
        {
          "attributes": {
            "NORMAL": 37,
            "POSITION": 36,
            "TANGENT": 38,
            "TEXCOORD_0": 39,
            "TEXCOORD_1": 40
          },
          "indices": 41,
          "material": 2,
          "mode": 4
        }
      ]
    }
  ],
  "nodes": [
    {
      "children": [
        1
      ],
      "matrix": [
        1.0,
        0.0,
        0.0,
        0.0,
        0.0,
        2.220446049250313e-16,
        -1.0,
        0.0,
        0.0,
        1.0,
        2.220446049250313e-16,
        0.0,
        0.0,
        0.0,
        0.0,
        1.0
      ],
      "name": "Sketchfab_model"
    },
    {
      "children": [
        2
      ],
      "matrix": [
        0.009999999776482582,
        0.0,
        0.0,
        0.0,
        0.0,
        0.0,
        0.009999999776482582,
        0.0,
        0.0,
        -0.009999999776482582,
        0.0,
        0.0,
        0.0,
        0.0,
        0.0,
        1.0
      ],
      "name": "PalmLOWPack.fbx"
    },
    {
      "children": [
        3,
        7,
        11
      ],
      "name": "RootNode"
    },
    {
      "children": [
        4,
        5,
        6
      ],
      "matrix": [
        100.0,
        0.0,
        0.0,
        0.0,
        0.0,
        -1.629206793918314e-05,
        -99.99999999999868,
        0.0,
        0.0,
        99.99999999999868,
        -1.629206793918314e-05,
        0.0,
        327.98193359375,
        0.40557965636253357,
        -376.02545166015625,
        1.0
      ],
      "name": "PALMLOW"
    },
    {
      "mesh": 0,
      "name": "PALMLOW_palmtrunkLOW_0"
    },
    {
      "mesh": 1,
      "name": "PALMLOW_PalmFrondLOW_0"
    },
    {
      "mesh": 2,
      "name": "PALMLOW_PalmBaseLOW_0"
    },
    {
      "children": [
        8,
        9,
        10
      ],
      "matrix": [
        100.0,
        0.0,
        0.0,
        0.0,
        0.0,
        -1.629206793918314e-05,
        -99.99999999999868,
        0.0,
        0.0,
        99.99999999999868,
        -1.629206793918314e-05,
        0.0,
        311.2525329589844,
        -0.4120781421661377,
        -949.4971313476563,
        1.0
      ],
      "name": "PALMLOW2"
    },
    {
      "mesh": 3,
      "name": "PALMLOW2_palmtrunkLOW_0"
    },
    {
      "mesh": 4,
      "name": "PALMLOW2_PalmFrondLOW_0"
    },
    {
      "mesh": 5,
      "name": "PALMLOW2_PalmBaseLOW_0"
    },
    {
      "children": [
        12,
        13,
        14
      ],
      "matrix": [
        -100.0,
        -0.0,
        -0.0,
        -0.0,
        -0.0,
        1.629206793918314e-05,
        -99.99999999999868,
        -0.0,
        -0.0,
        99.99999999999868,
        1.629206793918314e-05,
        -0.0,
        469.240966796875,
        0.0,
        -1357.7874755859375,
        1.0
      ],
      "name": "PALMLOW3"
    },
    {
      "mesh": 6,
      "name": "PALMLOW3_palmtrunkLOW_0"
    },
    {
      "mesh": 7,
      "name": "PALMLOW3_PalmFrondLOW_0"
    },
    {
      "mesh": 8,
      "name": "PALMLOW3_PalmBaseLOW_0"
    }
  ],
  "samplers": [
    {
      "magFilter": 9729,
      "minFilter": 9987,
      "wrapS": 10497,
      "wrapT": 10497
    }
  ],
  "scene": 0,
  "scenes": [
    {
      "name": "Sketchfab_Scene",
      "nodes": [
        0
      ]
    }
  ],
  "textures": [
    {
      "sampler": 0,
      "source": 0
    },
    {
      "sampler": 0,
      "source": 1
    },
    {
      "sampler": 0,
      "source": 2
    },
    {
      "sampler": 0,
      "source": 3
    }
  ]
}
