{
  "accessors": [
    {
      "bufferView": 2,
      "componentType": 5126,
      "count": 12304,
      "max": [
        1.434926986694336,
        1.0700311660766602,
        1.861284613609314
      ],
      "min": [
        -1.361781358718872,
        -0.9891107678413391,
        0.03413879871368408
      ],
      "type": "VEC3"
    },
    {
      "bufferView": 2,
      "byteOffset": 147648,
      "componentType": 5126,
      "count": 12304,
      "type": "VEC3"
    },
    {
      "bufferView": 3,
      "componentType": 5126,
      "count": 12304,
      "type": "VEC4"
    },
    {
      "bufferView": 1,
      "componentType": 5126,
      "count": 12304,
      "type": "VEC2"
    },
    {
      "bufferView": 1,
      "byteOffset": 98432,
      "componentType": 5126,
      "count": 12304,
      "type": "VEC2"
    },
    {
      "bufferView": 1,
      "byteOffset": 196864,
      "componentType": 5126,
      "count": 12304,
      "type": "VEC2"
    },
    {
      "bufferView": 0,
      "componentType": 5125,
      "count": 48012,
      "type": "SCALAR"
    },
    {
      "bufferView": 2,
      "byteOffset": 295296,
      "componentType": 5126,
      "count": 49721,
      "max": [
        1.420326590538025,
        1.133232831954956,
        1.8456799983978271
      ],
      "min": [
        -1.3723187446594238,
        -1.0823843479156494,
        -0.0011837482452392578
      ],
      "type": "VEC3"
    },
    {
      "bufferView": 2,
      "byteOffset": 891948,
      "componentType": 5126,
      "count": 49721,
      "type": "VEC3"
    },
    {
      "bufferView": 3,
      "byteOffset": 196864,
      "componentType": 5126,
      "count": 49721,
      "type": "VEC4"
    },
    {
      "bufferView": 1,
      "byteOffset": 295296,
      "componentType": 5126,
      "count": 49721,
      "type": "VEC2"
    },
    {
      "bufferView": 1,
      "byteOffset": 693064,
      "componentType": 5126,
      "count": 49721,
      "type": "VEC2"
    },
    {
      "bufferView": 1,
      "byteOffset": 1090832,
      "componentType": 5126,
      "count": 49721,
      "type": "VEC2"
    },
    {
      "bufferView": 0,
      "byteOffset": 192048,
      "componentType": 5125,
      "count": 143178,
      "type": "SCALAR"
    }
  ],
  "asset": {
    "generator": "fab-model-conversion",
    "version": "2.0"
  },
  "bufferViews": [
    {
      "buffer": 0,
      "byteLength": 764760,
      "target": 34963
    },
    {
      "buffer": 0,
      "byteLength": 1488600,
      "byteOffset": 764760,
      "byteStride": 8,
      "target": 34962
    },
    {
      "buffer": 0,
      "byteLength": 1488600,
      "byteOffset": 2253360,
      "byteStride": 12,
      "target": 34962
    },
    {
      "buffer": 0,
      "byteLength": 992400,
      "byteOffset": 3741960,
      "byteStride": 16,
      "target": 34962
    }
  ],
  "buffers": [
    {
      "byteLength": 4734360,
      "uri": "scene.bin"
    }
  ],
  "images": [
    {
      "uri": "textures/M_DrumKit_MainParts.001_baseColor.png"
    },
    {
      "uri": "textures/M_DrumKit_MainParts.001_metallicRoughness.png"
    },
    {
      "uri": "textures/M_DrumKit_MainParts.001_normal.png"
    },
    {
      "uri": "textures/M_DrumKit_MetalBits.001_baseColor.png"
    },
    {
      "uri": "textures/M_DrumKit_MetalBits.001_metallicRoughness.png"
    },
    {
      "uri": "textures/M_DrumKit_MetalBits.001_normal.png"
    }
  ],
  "materials": [
    {
      "doubleSided": true,
      "name": "M_DrumKit_MainParts.001",
      "normalTexture": {
        "index": 2
      },
      "pbrMetallicRoughness": {
        "baseColorTexture": {
          "index": 0
        },
        "metallicRoughnessTexture": {
          "index": 1
        }
      }
    },
    {
      "doubleSided": true,
      "name": "M_DrumKit_MetalBits.001",
      "normalTexture": {
        "index": 5,
        "texCoord": 1
      },
      "pbrMetallicRoughness": {
        "baseColorTexture": {
          "index": 3
        },
        "metallicRoughnessTexture": {
          "index": 4
        }
      }
    }
  ],
  "meshes": [
    {
      "name": "Cylinder.011_M_DrumKit_MainParts.001_0",
      "primitives": [
        {
          "attributes": {
            "NORMAL": 1,
            "POSITION": 0,
            "TANGENT": 2,
            "TEXCOORD_0": 3,
            "TEXCOORD_1": 4,
            "TEXCOORD_2": 5
          },
          "indices": 6,
          "material": 0,
          "mode": 4
        }
      ]
    },
    {
      "name": "Cylinder.011_M_DrumKit_MetalBits.001_0",
      "primitives": [
        {
          "attributes": {
            "NORMAL": 8,
            "POSITION": 7,
            "TANGENT": 9,
            "TEXCOORD_0": 10,
            "TEXCOORD_1": 11,
            "TEXCOORD_2": 12
          },
          "indices": 13,
          "material": 1,
          "mode": 4
        }
      ]
    }
  ],
  "nodes": [
    {
      "children": [
        1
      ],
      "matrix": [
        1.0,
        0.0,
        0.0,
        0.0,
        0.0,
        2.220446049250313e-16,
        -1.0,
        0.0,
        0.0,
        1.0,
        2.220446049250313e-16,
        0.0,
        0.0,
        0.0,
        0.0,
        1.0
      ],
      "name": "Sketchfab_model"
    },
    {
      "children": [
        2
      ],
      "matrix": [
        0.009999999776482582,
        0.0,
        0.0,
        0.0,
        0.0,
        0.0,
        0.009999999776482582,
        0.0,
        0.0,
        -0.009999999776482582,
        0.0,
        0.0,
        0.0,
        0.0,
        0.0,
        1.0
      ],
      "name": "274e6c7db1fc4191bf2bedec9f6aceef.fbx"
    },
    {
      "children": [
        3
      ],
      "name": "RootNode"
    },
    {
      "children": [
        4,
        5
      ],
      "matrix": [
        100.0,
        0.0,
        0.0,
        0.0,
        0.0,
        -1.629206793918314e-05,
        -99.99999999999868,
        0.0,
        0.0,
        99.99999999999868,
        -1.629206793918314e-05,
        0.0,
        0.0,
        0.0,
        0.0,
        1.0
      ],
      "name": "Cylinder.011"
    },
    {
      "mesh": 0,
      "name": "Cylinder.011_M_DrumKit_MainParts.001_0"
    },
    {
      "mesh": 1,
      "name": "Cylinder.011_M_DrumKit_MetalBits.001_0"
    }
  ],
  "samplers": [
    {
      "magFilter": 9729,
      "minFilter": 9987,
      "wrapS": 10497,
      "wrapT": 10497
    }
  ],
  "scene": 0,
  "scenes": [
    {
      "name": "Sketchfab_Scene",
      "nodes": [
        0
      ]
    }
  ],
  "textures": [
    {
      "sampler": 0,
      "source": 0
    },
    {
      "sampler": 0,
      "source": 1
    },
    {
      "sampler": 0,
      "source": 2
    },
    {
      "sampler": 0,
      "source": 3
    },
    {
      "sampler": 0,
      "source": 4
    },
    {
      "sampler": 0,
      "source": 5
    }
  ]
}
